<svg height="30" viewBox="0 0 114 30" width="114" xmlns="http://www.w3.org/2000/svg" xmlns:xlink="http://www.w3.org/1999/xlink"><mask id="a" fill="#fff"><path d="m0 .12869816h19.7958916v29.26113034h-19.7958916z" fill="#fff" fill-rule="evenodd"/></mask><mask id="b" fill="#fff"><path d="m.10924998.02447571h14.19133102v14.03108609h-14.19133102z" fill="#fff" fill-rule="evenodd"/></mask><mask id="c" fill="#fff"><path d="m.13145122.02266756h14.19156288v18.73879894h-14.19156288z" fill="#fff" fill-rule="evenodd"/></mask><g fill="none" fill-rule="evenodd" transform="translate(0 .100775)"><path d="m16.8480192 5.0710051c.3327319 0 .6018632.26632909.6018632.59485677 0 .32852769-.2691313.59485677-.6018632.59485677-.3323972 0-.6018632-.26632908-.6018632-.59485677 0-.32852768.269466-.59485677.6018632-.59485677m2.5788399.46913621-1.3908463-.4152087c1.2512596-1.19169861.4776745-3.65813756-1.8330384-3.65813756h-1.5752882l-.1245234-.77582822c-.1031001-.64382162-.9834673-.77351231-1.2720135-.18725747 0 0-1.2666576 2.57197806-1.4052401 2.85319511-.576423 1.17019377-.7089802 1.93841258-.5151655 3.14400662v.00033084c.0006695.00496266 1.0102465 6.28503567 1.0102465 6.28503567.2366614 1.4729156-1.0607923 2.7397157-2.54804381 2.4876129l-2.77901468-.4707904c-6.00925939-1.0186674-10.35050745 5.8192079-3.50908346 14.1276829.43951413.5336507 1.11167282.6120606 1.43001093 0l1.19033681-2.2884451c1.29578003-2.4912522 4.89926031-2.4912522 6.19504031 0l1.1900021 2.2884451c.3180033.6120606 1.2033916.6120606 1.5217298 0l3.3802084-6.4990914c.997861-1.9188929 1.3510122-4.1021297 1.0085727-6.2324316l-1.1484942-7.14357472c-.0699608-.43605185.0512153-1.01436644.6410278-1.26216829.4134044-.17369288.7136665-.54489939.785301-.98988402l.110799-.69179394c.0408384-.25342619-.1141464-.49725791-.3625238-.57169772" fill="#ff6e47" mask="url(#a)"/><g fill="#3e4d55"><path d="m35.1042438 21.7883702c-1.196677 0-2.2070648-.3938321-3.0050696-1.1811703-.7973443-.8134198-1.1963467-1.8110409-1.1963467-3.0182929 0-1.2072519.3990024-2.204547 1.1963467-2.9918852.7980048-.8137458 1.8083926-1.207578 3.0050696-1.207578 1.1963467 0 2.2070648.3938322 3.0047393 1.207578.7976746.7873382 1.1963467 1.7846333 1.1963467 2.9918852 0 1.207252-.3986721 2.2048731-1.1963467 3.0182929-.7976745.7873382-1.8083926 1.1811703-3.0047393 1.1811703m6.5032772-10.760941h-1.609552c-.2563129 0-.4809169.1692043-.5486284.4133933l-.2559825.9226365c-2.4452111-2.39429063-6.7932806-2.1765093-9.2213161.3175435-1.3027033 1.3386379-1.9411732 2.9658036-1.9411732 4.9079045 0 1.942101.6384699 3.5692666 1.9411732 4.9079046 2.4293567 2.4953568 6.7810595 2.7118341 9.2252797.3139572l.2530098.9249187c.0670509.244841.2919852.4146974.549289.4146974h1.6079005c.3147759 0 .5697675-.2513614.5697675-.5620584v-11.9988389c0-.310371-.2549916-.5620584-.5697675-.5620584"/><path d="m75.1859316 21.7883702c-1.196705 0-2.2074466-.3938321-3.0051398-1.1811703-.7976932-.8134198-1.1963746-1.8110409-1.1963746-3.0182929 0-1.2072519.3986814-2.204547 1.1963746-2.9918852.7976932-.8137458 1.8084348-1.207578 3.0051398-1.207578 1.1963746 0 2.2071163.3938322 3.0048095 1.207578.7976931.7873382 1.1967049 1.7846333 1.1967049 2.9918852 0 1.207252-.3990118 2.2048731-1.1967049 3.0182929-.7976932.7873382-1.8084349 1.1811703-3.0048095 1.1811703m6.503429-10.760941h-1.6099199c-.2559885 0-.4809281.1692043-.5483108.4133933l-.2559885.9226365c-2.4452682-2.39429063-6.7937696-2.1765093-9.2215314.3175435-1.3027337 1.3386379-1.9412186 2.9658036-1.9412186 4.9079045 0 1.942101.6384849 3.5692666 1.9412186 4.9079046 2.4290831 2.4953568 6.7808875 2.7118341 9.2254951.3139572l.2530157.9249187c.0670524.244841.291992.4146974.5489714.4146974h1.6082684c.3147833 0 .5694505-.2513614.5694505-.5620584v-11.9988389c0-.310371-.2546672-.5620584-.5694505-.5620584"/><path d="m7.20503144 11.3065921c-1.20052378 0-2.2141595-.4001205-3.0147296-1.2000302-.80023873-.82640775-1.20019242-1.83995793-1.20019242-3.06648615 0-1.22652821.39995369-2.23974716 1.20019242-3.03965687.8005701-.82673897 1.81420582-1.22685944 3.0147296-1.22685944 1.20019242 0 2.21415951.40012047 3.01439826 1.22685944.8002387.79990971 1.2005238 1.81312866 1.2005238 3.03965687 0 1.22652822-.4002851 2.2400784-1.2005238 3.06648615-.80023875.7999097-1.81420584 1.2000302-3.01439826 1.2000302m6.52418236-10.93276177h-1.614726c-.2571368 0-.4824628.17190607-.550392.419994l-.2568053.93703708c-2.45274004-2.43218921-6.81511806-2.21093054-9.25062725.32294491-1.30689092 1.36001211-1.94741327 3.01315883-1.94741327 4.98626943 0 1.97311061.64052235 3.62625735 1.94741327 4.98626945 2.43683463 2.5352003 6.80219491 2.7551341 9.25493495.3189702l.2534917.9396869c.0672665.2487504.2932552.4213189.5510547.4213189h1.6130692c.3157878 0 .5715991-.2553749.5715991-.5710329v-12.19042512c0-.31532672-.2558113-.57103285-.5715991-.57103285" mask="url(#b)" transform="translate(99.024938 10.683613)"/><path d="m10.2416309 9.95830323c-.80023871.78829037-1.81387443 1.18259877-3.01439821 1.18259877-1.20019242 0-2.21382815-.3943084-3.01406689-1.18259877-.80023873-.8144035-1.20052378-1.81323104-1.20052378-3.02194293s.40028505-2.20721302 1.20052378-2.99550338c.80023874-.81472992 1.81387447-1.20903831 3.01406689-1.20903831 1.20052378 0 2.2141595.39430839 3.01439821 1.20903831.8005701.78829036 1.2005238 1.78679149 1.2005238 2.99550338s-.3999537 2.20753943-1.2005238 3.02194293m-7.11665723-8.25403661-.25680539-.92342585c-.06792917-.24448426-.29325519-.41389324-.55039194-.41389324h-1.61505738c-.31545643 0-.57126774.25199178-.57126774.56273813v17.26894474c0 .3107464.25581131.5630646.57126774.5630646h1.73832397c.31578779 0 .57159909-.2523182.57159909-.5630646v-6.1411573c2.4302074 2.5153481 6.89033715 2.3279863 9.36295888-.207273 1.3072223-1.3402568 1.9474132-2.96939024 1.9474132-4.9138398s-.6401909-3.57358298-1.9474132-4.91383981c-2.43517784-2.49706885-6.79755586-2.71511355-9.25062723-.31825387" mask="url(#c)" transform="translate(51.608235 10.683613)"/><path d="m47.6311854 5.4720944h-1.738818c-.315546 0-.57143.25702007-.57143.57430003v17.61319937c0 .3172799.255884.5739671.57143.5739671h1.738818c.315546 0 .57143-.2566872.57143-.5739671v-17.61319937c0-.31727996-.255884-.57430003-.57143-.57430003"/><path d="m97.4235644 20.7965667-1.4933631-.8369026c-.2549725-.1431802-.5782472-.0724055-.7480078.1637276-.7055677.9813874-1.9018497 1.5877015-3.2834758 1.5877015-1.1743988 0-2.1621272-.3936639-2.9628536-1.1813178-.7742014-.7876538-1.1743988-1.7592567-1.1743988-2.9409006 0-1.1813177.4001974-2.1529205 1.1743988-2.9405744.8007264-.78798 1.7884548-1.1816439 2.9628536-1.1816439 1.3982043 0 2.5523777.5802221 3.2314203 1.5665017.1687659.2449391.4996665.3212584.7599441.1728599l1.4960156-.8545148c.2824923-.1614446.3700251-.5231457.1929701-.7935246-1.1617994-1.7755642-3.284802-2.8743658-5.6534934-2.8743658-2.0019819 0-3.6836733.6562151-5.045074 1.9953898-1.3345441 1.3127564-2.0019819 2.9409006-2.0019819 4.9098721 0 1.9428796.6674378 3.5706976 2.0019819 4.9101984 1.3614007 1.3388485 3.0430921 1.9950636 5.045074 1.9950636 2.3749911 0 4.4804209-1.1046723 5.6982545-2.9086117.1803707-.2667912.0828909-.6304492-.2002645-.7889584"/></g></g></svg>